<svg xmlns="http://www.w3.org/2000/svg" viewBox="0 0 2570 1364" preserveAspectRatio="xMidYMid meet" role="img" aria-label="purpl">
  <g transform="translate(0, 1011) scale(1, -1)" fill="#2a1f3d"><path d="M80.42236328125 -180V485.1444091796875H140.73291015625V364.40869140625H129.9617919921875Q146.5040283203125 423.8909912109375 194.5462646484375 458.74658203125Q242.5885009765625 493.6021728515625 310.7574462890625 493.6021728515625Q376.2996826171875 493.6021728515625 424.41412353515625 462.98773193359375Q472.528564453125 432.373291015625 499.14300537109375 376.25885009765625Q525.7574462890625 320.1444091796875 525.7574462890625 242.6866455078125Q525.7574462890625 166.2288818359375 499.528564453125 109.5Q473.2996826171875 52.7711181640625 424.91412353515625 22.15667724609375Q376.528564453125 -8.457763671875 310.7574462890625 -8.457763671875Q242.8173828125 -8.457763671875 194.88958740234375 26.6689453125Q146.9617919921875 61.795654296875 130.190673828125 120.049072265625H141.4195556640625V-180ZM301.9754638671875 43.359619140625Q376.4822998046875 43.359619140625 420.12127685546875 95.4263916015625Q463.76025390625 147.4931640625 463.76025390625 242.6866455078125Q463.76025390625 338.1090087890625 420.12127685546875 389.9468994140625Q376.4822998046875 441.7847900390625 301.9754638671875 441.7847900390625Q228.23974609375 441.7847900390625 184.2152099609375 389.9468994140625Q140.190673828125 338.1090087890625 140.190673828125 242.6866455078125Q140.190673828125 147.4931640625 184.2152099609375 95.4263916015625Q228.23974609375 43.359619140625 301.9754638671875 43.359619140625Z" transform="translate(0,0)"/><path d="M251.25341796875 -8.457763671875Q193.337890625 -8.457763671875 154.880126953125 12.88555908203125Q116.42236328125 34.2288818359375 97.30792236328125 76.14761032424607Q78.1934814453125 118.06633881255463 78.1934814453125 180.4332275390625V485.1444091796875H139.190673828125V183.0599365234375Q139.190673828125 135.950927734375 151.71856895189606 104.851875073982Q164.24646407566712 73.75282241358902 191.15823878599016 58.89954353101326Q218.0700134963132 44.0462646484375 258.90167167749297 44.0462646484375Q304.373291015625 44.0462646484375 338.3555908203125 64.55853271484375Q372.337890625 85.07080078125 391.85015869140625 122.0366280295632Q411.3624267578125 159.0024552778764 411.3624267578125 208.6021728515625V485.1444091796875H472.359619140625V0H412.8201904296875V116.6512451171875H425.2779541015625Q405.8201904296875 55.711181640625 359.07904052734375 23.626708984375Q312.337890625 -8.457763671875 251.25341796875 -8.457763671875Z" transform="translate(635,0)"/><path d="M80.42236328125 0V485.1444091796875H139.9617919921875V371H129.9617919921875Q148.5885009765625 430.2288818359375 191.1307373046875 460.1866455078125Q233.6729736328125 490.1444091796875 303.2152099609375 495.1444091796875L328.106201171875 497.373291015625L333.7928466796875 443.809326171875L291.0953369140625 439.1226806640625Q220.07080078125 432.3515625 180.97406005859375 391.98370361328125Q141.8773193359375 351.6158447265625 141.8773193359375 283.8201904296875V0Z" transform="translate(1248,0)"/><path d="M80.42236328125 -180V485.1444091796875H140.73291015625V364.40869140625H129.9617919921875Q146.5040283203125 423.8909912109375 194.5462646484375 458.74658203125Q242.5885009765625 493.6021728515625 310.7574462890625 493.6021728515625Q376.2996826171875 493.6021728515625 424.41412353515625 462.98773193359375Q472.528564453125 432.373291015625 499.14300537109375 376.25885009765625Q525.7574462890625 320.1444091796875 525.7574462890625 242.6866455078125Q525.7574462890625 166.2288818359375 499.528564453125 109.5Q473.2996826171875 52.7711181640625 424.91412353515625 22.15667724609375Q376.528564453125 -8.457763671875 310.7574462890625 -8.457763671875Q242.8173828125 -8.457763671875 194.88958740234375 26.6689453125Q146.9617919921875 61.795654296875 130.190673828125 120.049072265625H141.4195556640625V-180ZM301.9754638671875 43.359619140625Q376.4822998046875 43.359619140625 420.12127685546875 95.4263916015625Q463.76025390625 147.4931640625 463.76025390625 242.6866455078125Q463.76025390625 338.1090087890625 420.12127685546875 389.9468994140625Q376.4822998046875 441.7847900390625 301.9754638671875 441.7847900390625Q228.23974609375 441.7847900390625 184.2152099609375 389.9468994140625Q140.190673828125 338.1090087890625 140.190673828125 242.6866455078125Q140.190673828125 147.4931640625 184.2152099609375 95.4263916015625Q228.23974609375 43.359619140625 301.9754638671875 43.359619140625Z" transform="translate(1650,0)"/><path d="M221.119873046875 -8.457763671875Q152.626708984375 -8.457763671875 116.5245361328125 33.6444091796875Q80.42236328125 75.74658203125 80.42236328125 153.0953369140625V705H141.4195556640625V159.866455078125Q141.4195556640625 122.3841552734375 151.4617919921875 96.486328125Q161.5040283203125 70.5885009765625 181.5885009765625 57.88958740234375Q201.6729736328125 45.190673828125 231.2996826171875 45.190673828125Q243.8419189453125 45.190673828125 255.22747802734375 46.57623291015625Q266.613037109375 47.9617919921875 277.3841552734375 50.9617919921875L274.613037109375 -1.7711181640625Q260.4686279296875 -5 247.20977783203125 -6.7288818359375Q233.950927734375 -8.457763671875 221.119873046875 -8.457763671875Z" transform="translate(2285,0)"/></g>
</svg>
